# xmcd
#
# Track frame offsets: 
#        150
#        15428
#        40994
#        59777
#        86453
#        100674
#        120623
#        134446
#        150873
#        169101
#        187675
#        200236
#
# Disc length: 3047 seconds
#
# Revision: 0
# Processed by: cddbd v1.5.2PL0 Copyright (c) Steve Scherf et al.
# Submitted via: ExactAudioCopy v0.99pb3
#
DISCID=950be50c
DTITLE=Lady Bianca - Through A Woman's Eyes
DYEAR=2007
DGENRE=Blues
TTITLE0=When We Go Dancin'
TTITLE1=Welcome To Momma's Club
TTITLE2=Women Need Money Too
TTITLE3=Through A Women's Eyes
TTITLE4=Kiss And A Rose
TTITLE5=Don't Be Cruel
TTITLE6=Wanted
TTITLE7=Oprah Winfrey Show
TTITLE8=Should'na Made It So Good
TTITLE9=Can Your Body Shake Like Mine
TTITLE10=Baby's Boogie
TTITLE11=I Need Someone To Love Me
EXTD=
EXTT0=
EXTT1=
EXTT2=
EXTT3=
EXTT4=
EXTT5=
EXTT6=
EXTT7=
EXTT8=
EXTT9=
EXTT10=
EXTT11=
PLAYORDER=
